<?xml version="1.0" encoding="utf-8" ?>
<svg baseProfile="full" height="714" version="1.1" width="2048" xmlns="http://www.w3.org/2000/svg" xmlns:ev="http://www.w3.org/2001/xml-events" xmlns:xlink="http://www.w3.org/1999/xlink"><defs /><polygon fill="black" points="245,151 241,155 240,155 238,157 238,158 236,160 235,160 232,163 232,164 226,170 225,170 223,172 223,173 221,175 220,175 220,176 218,178 217,178 217,179 216,180 215,180 213,182 213,183 212,184 211,184 210,185 210,186 201,195 201,196 194,203 194,204 188,210 188,212 187,213 186,213 186,215 181,220 181,221 178,224 178,225 175,228 175,229 172,232 172,233 171,234 171,235 168,238 168,240 165,243 165,244 164,245 164,246 161,249 160,249 160,251 158,253 158,254 156,256 156,257 155,258 155,260 154,261 154,262 152,264 152,266 151,267 151,268 150,269 150,271 149,272 149,273 148,274 148,275 147,276 147,277 146,278 146,280 144,282 144,284 143,285 143,287 142,288 142,290 141,291 141,293 140,294 140,296 139,297 139,299 138,300 138,303 137,304 137,306 136,307 136,311 135,312 135,315 134,316 134,320 133,321 133,326 132,327 132,333 131,334 131,343 130,344 130,371 131,372 131,382 132,383 132,390 133,391 133,395 134,396 134,401 135,402 135,407 136,408 136,410 137,411 137,414 138,415 138,418 139,419 139,421 140,422 140,424 141,425 141,427 142,428 142,430 143,431 143,433 144,434 144,435 145,436 145,437 146,438 146,440 147,441 147,442 148,443 148,444 149,445 149,446 150,447 150,449 151,450 151,451 152,452 152,453 153,454 153,456 154,457 154,458 155,459 155,460 156,461 156,462 158,464 158,466 159,466 162,469 162,470 163,471 163,472 165,474 165,475 166,476 166,477 168,479 168,480 171,483 171,484 172,485 172,486 175,489 175,490 178,493 178,494 179,495 179,496 180,496 181,497 181,498 184,501 184,502 186,504 186,506 187,506 188,507 188,508 193,513 193,514 197,518 197,519 198,520 199,520 200,521 200,522 204,526 204,527 205,527 206,528 206,529 207,529 210,532 210,533 211,534 212,534 213,535 213,536 218,541 219,541 220,542 220,543 221,544 222,544 223,545 223,546 228,551 228,552 229,552 230,553 230,554 231,554 234,557 234,558 235,558 239,562 239,563 240,563 243,566 415,566 413,564 412,564 411,563 411,562 410,561 410,560 409,560 403,554 403,553 402,553 401,552 401,550 397,546 397,545 396,545 394,543 394,542 393,542 392,541 392,540 391,540 390,539 390,538 389,538 388,537 388,535 387,535 385,533 385,532 380,527 380,526 377,523 377,522 376,521 375,521 374,520 374,519 373,518 373,517 372,517 371,516 371,515 369,513 369,512 366,509 366,508 363,505 363,504 362,503 362,502 359,499 359,498 357,496 357,495 356,494 356,493 354,491 354,490 352,488 352,487 350,485 350,484 348,482 348,481 347,480 347,479 345,477 345,476 344,475 344,474 343,473 343,472 341,470 341,469 340,468 340,467 339,467 338,466 338,465 337,464 337,463 336,462 336,461 335,460 335,458 333,456 333,453 332,452 332,451 331,450 331,449 330,448 330,447 329,446 329,445 328,444 328,442 327,441 327,438 326,437 326,436 325,435 325,433 324,432 324,430 323,429 323,426 322,425 322,423 321,422 321,419 320,418 320,415 319,414 319,411 318,410 318,407 317,406 317,400 316,399 316,394 315,393 315,385 314,384 314,371 313,370 313,344 314,343 314,332 315,331 315,324 316,323 316,319 317,318 317,313 318,312 318,308 319,307 319,304 320,303 320,300 321,299 321,296 322,295 322,293 323,292 323,289 324,288 324,287 325,286 325,283 326,282 326,281 327,280 327,277 328,276 328,275 329,274 329,273 330,272 330,270 331,269 331,268 332,267 332,266 333,265 333,263 335,261 335,259 336,258 336,257 337,256 337,255 338,254 338,253 339,252 339,251 340,250 340,249 341,248 342,248 342,247 344,245 344,244 345,243 345,242 347,240 347,238 350,235 350,234 351,233 351,232 352,231 352,230 354,228 354,227 355,226 356,226 356,224 359,221 359,220 362,217 362,216 364,214 364,213 366,211 366,210 367,209 367,208 371,204 371,203 373,201 373,200 378,195 378,194 383,189 383,188 385,186 385,185 387,183 388,183 388,182 391,179 392,179 392,178 393,177 394,177 394,175 395,174 396,174 397,173 397,172 405,164 405,163 407,161 407,160 408,159 409,159 411,157 411,156 413,154 414,154 414,153 416,151" /><polygon fill="black" points="1614,147 1616,149 1616,150 1617,150 1619,152 1619,153 1625,159 1625,160 1627,162 1627,163 1628,163 1633,168 1633,169 1634,170 1635,170 1636,171 1636,173 1637,173 1638,174 1638,175 1639,175 1642,178 1642,179 1647,184 1647,185 1650,188 1650,189 1651,189 1652,190 1652,191 1654,193 1654,194 1655,194 1656,195 1656,196 1659,199 1659,200 1660,200 1661,201 1661,202 1663,204 1663,205 1665,207 1665,208 1666,209 1666,210 1667,211 1667,212 1671,216 1671,217 1674,220 1674,222 1677,225 1677,226 1679,228 1679,229 1680,230 1680,231 1682,233 1682,234 1683,235 1683,236 1685,238 1685,239 1686,240 1686,241 1688,243 1688,244 1689,244 1690,245 1690,246 1691,247 1691,248 1693,250 1693,252 1694,253 1694,254 1695,255 1695,257 1697,259 1697,261 1698,262 1698,263 1699,264 1699,265 1700,266 1700,268 1701,269 1701,270 1702,271 1702,272 1703,273 1703,275 1704,276 1704,278 1705,279 1705,281 1706,282 1706,284 1707,285 1707,287 1708,288 1708,291 1709,292 1709,295 1710,296 1710,299 1711,300 1711,302 1712,303 1712,308 1713,309 1713,313 1714,314 1714,319 1715,320 1715,326 1716,327 1716,336 1717,337 1717,370 1716,371 1716,382 1715,383 1715,390 1714,391 1714,396 1713,397 1713,403 1712,404 1712,407 1711,408 1711,411 1710,412 1710,415 1709,416 1709,419 1708,420 1708,423 1707,424 1707,426 1706,427 1706,429 1705,430 1705,432 1704,433 1704,434 1703,435 1703,438 1702,439 1702,440 1701,441 1701,442 1700,443 1700,445 1699,446 1699,447 1698,448 1698,449 1697,450 1697,452 1696,453 1696,454 1695,455 1695,456 1694,457 1694,458 1693,459 1693,461 1689,465 1689,466 1688,467 1688,468 1686,470 1686,471 1685,472 1685,473 1683,475 1683,476 1682,477 1682,478 1680,480 1680,481 1679,482 1679,483 1677,485 1677,486 1674,489 1674,491 1671,494 1671,495 1668,498 1668,499 1667,500 1667,501 1665,503 1665,504 1663,506 1663,507 1661,509 1661,510 1660,511 1659,511 1659,512 1657,514 1657,515 1655,517 1654,517 1654,518 1653,519 1653,520 1647,526 1647,527 1645,529 1645,530 1644,531 1643,531 1642,532 1642,533 1639,536 1638,536 1638,537 1636,539 1636,540 1635,541 1634,541 1633,542 1633,543 1629,547 1629,548 1628,549 1627,549 1627,550 1619,558 1619,559 1618,560 1617,560 1616,561 1616,562 1787,562 1790,559 1791,559 1792,558 1792,557 1794,555 1795,555 1796,554 1796,553 1797,552 1798,552 1803,547 1803,546 1809,540 1810,540 1810,539 1814,535 1815,535 1815,534 1816,533 1817,533 1817,532 1819,530 1820,530 1820,529 1824,525 1824,524 1825,523 1826,523 1826,522 1827,521 1828,521 1829,520 1829,519 1836,512 1836,511 1838,509 1838,508 1842,504 1842,503 1843,502 1844,502 1844,501 1846,499 1846,498 1849,495 1849,494 1852,491 1852,489 1853,488 1854,488 1855,487 1855,486 1857,484 1857,483 1859,481 1859,480 1861,478 1861,477 1862,476 1862,475 1864,473 1864,472 1866,470 1866,469 1868,467 1868,465 1869,464 1870,464 1870,463 1871,462 1872,462 1872,461 1873,460 1873,459 1874,458 1874,457 1876,455 1876,454 1877,453 1877,452 1878,451 1878,448 1880,446 1880,444 1881,443 1881,442 1882,441 1882,439 1883,438 1883,437 1884,436 1884,434 1886,432 1886,430 1887,429 1887,428 1888,427 1888,425 1889,424 1889,422 1890,421 1890,419 1891,418 1891,416 1892,415 1892,412 1893,411 1893,408 1894,407 1894,404 1895,403 1895,399 1896,398 1896,394 1897,393 1897,388 1898,387 1898,380 1899,379 1899,370 1900,369 1900,339 1899,338 1899,330 1898,329 1898,323 1897,322 1897,317 1896,316 1896,312 1895,311 1895,307 1894,306 1894,302 1893,301 1893,298 1892,297 1892,295 1891,294 1891,292 1890,291 1890,289 1889,288 1889,287 1888,286 1888,284 1887,283 1887,281 1886,280 1886,278 1884,276 1884,274 1883,273 1883,271 1882,270 1882,269 1881,268 1881,267 1880,266 1880,265 1879,264 1879,263 1878,262 1878,260 1876,258 1876,256 1875,255 1875,254 1873,252 1873,250 1870,247 1870,245 1869,245 1866,242 1866,241 1865,240 1865,239 1863,237 1863,236 1862,235 1862,234 1859,231 1859,230 1857,228 1857,227 1855,225 1855,224 1852,221 1852,220 1849,217 1849,216 1845,212 1845,211 1842,208 1842,207 1841,206 1841,205 1836,200 1836,199 1829,192 1829,191 1820,182 1820,181 1819,181 1817,179 1817,178 1815,176 1814,176 1813,175 1813,174 1812,174 1810,172 1810,171 1809,171 1807,169 1807,168 1806,167 1805,167 1798,160 1798,159 1795,156 1794,156 1792,154 1792,153 1791,152 1790,152 1785,147" /><polygon fill="black" points="1036,147 1036,672 1235,672 1235,567 1236,566 1439,566 1440,565 1448,565 1449,564 1455,564 1456,563 1461,563 1462,562 1465,562 1466,561 1469,561 1470,560 1472,560 1473,559 1476,559 1477,558 1479,558 1480,557 1482,557 1483,556 1485,556 1486,555 1487,555 1488,554 1490,554 1491,553 1492,553 1493,552 1494,552 1495,551 1496,551 1497,550 1498,550 1499,549 1500,549 1501,548 1502,548 1503,547 1504,547 1506,545 1507,545 1508,544 1509,544 1510,543 1511,543 1513,541 1514,541 1516,539 1517,539 1520,536 1521,536 1526,531 1527,531 1534,524 1535,524 1535,523 1545,513 1545,512 1548,509 1548,508 1552,504 1552,503 1554,501 1554,500 1556,498 1556,497 1558,495 1558,494 1559,493 1559,492 1561,490 1561,489 1562,488 1562,487 1563,486 1563,485 1564,484 1564,483 1565,482 1565,481 1566,480 1566,479 1567,478 1567,477 1568,476 1568,475 1569,474 1569,473 1570,472 1570,471 1571,470 1571,468 1572,467 1572,466 1573,465 1573,463 1574,462 1574,461 1575,460 1575,458 1576,457 1576,455 1577,454 1577,452 1578,451 1578,449 1579,448 1579,445 1580,444 1580,442 1581,441 1581,438 1582,437 1582,434 1583,433 1583,430 1584,429 1584,425 1585,424 1585,420 1586,419 1586,415 1587,414 1587,408 1588,407 1588,400 1589,399 1589,388 1590,387 1590,367 1591,366 1591,349 1590,348 1590,332 1589,331 1589,321 1588,320 1588,313 1587,312 1587,307 1586,306 1586,301 1585,300 1585,296 1584,295 1584,292 1583,291 1583,288 1582,287 1582,284 1581,283 1581,280 1580,279 1580,276 1579,275 1579,273 1578,272 1578,270 1577,269 1577,267 1576,266 1576,264 1575,263 1575,261 1574,260 1574,258 1573,257 1573,255 1572,254 1572,253 1571,252 1571,250 1570,249 1570,248 1569,247 1569,246 1568,245 1568,244 1567,243 1567,242 1566,241 1566,240 1565,239 1565,238 1564,237 1564,236 1563,235 1563,234 1562,233 1562,232 1561,231 1561,230 1560,229 1560,228 1559,227 1559,226 1557,224 1557,223 1556,222 1556,221 1554,219 1554,218 1552,216 1552,215 1550,213 1550,212 1547,209 1547,208 1544,205 1544,204 1539,199 1539,198 1526,185 1525,185 1520,180 1519,180 1516,177 1515,177 1512,174 1511,174 1509,172 1508,172 1506,170 1505,170 1504,169 1503,169 1501,167 1500,167 1499,166 1498,166 1497,165 1496,165 1495,164 1494,164 1493,163 1492,163 1491,162 1490,162 1489,161 1488,161 1487,160 1486,160 1485,159 1484,159 1483,158 1481,158 1480,157 1478,157 1477,156 1476,156 1475,155 1473,155 1472,154 1469,154 1468,153 1466,153 1465,152 1461,152 1460,151 1457,151 1456,150 1452,150 1451,149 1446,149 1445,148 1438,148 1437,147" /><polygon fill="black" points="449,41 449,566 849,566 850,565 858,565 859,564 864,564 865,563 869,563 870,562 873,562 874,561 877,561 878,560 881,560 882,559 884,559 885,558 888,558 889,557 890,557 891,556 893,556 894,555 896,555 897,554 898,554 899,553 900,553 901,552 903,552 904,551 905,551 907,549 908,549 909,548 910,548 911,547 912,547 913,546 914,546 916,544 917,544 918,543 919,543 921,541 922,541 923,540 924,540 927,537 928,537 932,533 933,533 937,529 938,529 953,514 953,513 958,508 958,507 961,504 961,503 964,500 964,499 966,497 966,496 967,495 967,494 969,492 969,491 971,489 971,488 972,487 972,486 974,484 974,483 975,482 975,481 976,480 976,479 977,478 977,477 978,476 978,475 979,474 979,473 980,472 980,471 981,470 981,469 982,468 982,466 983,465 983,464 984,463 984,462 985,461 985,459 986,458 986,457 987,456 987,454 988,453 988,451 989,450 989,449 990,448 990,446 991,445 991,443 992,442 992,439 993,438 993,436 994,435 994,432 995,431 995,428 996,427 996,423 997,422 997,419 998,418 998,414 999,413 999,409 1000,408 1000,402 1001,401 1001,395 1002,394 1002,387 1003,386 1003,375 1004,374 1004,335 1003,334 1003,320 1002,319 1002,311 1001,310 1001,304 1000,303 1000,298 999,297 999,292 998,291 998,287 997,286 997,283 996,282 996,278 995,277 995,274 994,273 994,270 993,269 993,267 992,266 992,264 991,263 991,260 990,259 990,257 989,256 989,255 988,254 988,252 987,251 987,250 986,249 986,247 985,246 985,245 984,244 984,243 983,242 983,240 982,239 982,238 981,237 981,236 980,235 980,234 979,233 979,232 978,231 978,230 977,229 977,228 976,227 976,226 975,225 975,224 973,222 973,221 972,220 972,219 970,217 970,216 968,214 968,213 966,211 966,210 964,208 964,207 961,204 961,203 956,198 956,197 942,183 941,183 937,179 936,179 933,176 932,176 929,173 928,173 926,171 925,171 923,169 922,169 921,168 920,168 919,167 918,167 916,165 915,165 914,164 913,164 912,163 911,163 910,162 909,162 908,161 907,161 906,160 904,160 903,159 902,159 901,158 899,158 898,157 897,157 896,156 894,156 893,155 891,155 890,154 887,154 886,153 884,153 883,152 880,152 879,151 876,151 875,150 870,150 869,149 863,149 862,148 855,148 854,147 649,147 648,146 648,41" /></svg>